<?xml version="1.0" encoding="UTF-8"?>
<svg version="1.1" xmlns="http://www.w3.org/2000/svg" width="225" height="225">
<path d="M0 0 C74.25 0 148.5 0 225 0 C225 74.25 225 148.5 225 225 C150.75 225 76.5 225 0 225 C0 150.75 0 76.5 0 0 Z " fill="#FEFDFC" transform="translate(0,0)"/>
<path d="M0 0 C0.75023438 0.50660156 1.50046875 1.01320313 2.2734375 1.53515625 C3.15 2.01210937 4.0265625 2.4890625 4.9296875 2.98046875 C15.72629237 9.35758426 26.37241395 15.96592674 36.99707031 22.62353516 C41.90158935 25.69146342 46.83163727 28.71522888 51.7734375 31.72265625 C60.15182034 36.82213863 68.46960881 42.01637218 76.77539062 47.2331543 C82.89889861 51.07373038 89.05975986 54.84216958 95.2734375 58.53515625 C94.2734375 61.53515625 94.2734375 61.53515625 92.17825317 62.70678329 C88.67558151 63.70564822 85.40553257 63.81245376 81.79638672 63.78912354 C81.05243589 63.79224352 80.30848507 63.7953635 79.54199028 63.79857802 C77.05395413 63.80654301 74.56616289 63.80024027 72.078125 63.79394531 C70.29241798 63.79665584 68.50671208 63.80021712 66.7210083 63.80456543 C61.87398793 63.81368433 57.02705269 63.81014721 52.18003082 63.80380726 C47.1081367 63.79874471 42.03624988 63.80343943 36.96435547 63.80657959 C28.44692679 63.81021848 19.92953279 63.80542213 11.41210938 63.79589844 C1.56401477 63.78501404 -8.28399702 63.78853967 -18.13208961 63.79955125 C-26.58655824 63.80862629 -35.04100194 63.80990833 -43.49547386 63.80467391 C-48.54535657 63.80155541 -53.59520035 63.80114159 -58.64508057 63.80774689 C-63.39256925 63.81352286 -68.13995114 63.8095188 -72.88742828 63.79795837 C-74.63011752 63.79531314 -76.37281574 63.79607455 -78.1155014 63.8004837 C-80.49362632 63.80594598 -82.87140864 63.79909682 -85.24951172 63.78912354 C-86.28477839 63.7958157 -86.28477839 63.7958157 -87.34095955 63.80264306 C-91.23870539 63.77092163 -94.21204665 63.23671416 -97.7265625 61.53515625 C-97.7265625 60.87515625 -97.7265625 60.21515625 -97.7265625 59.53515625 C-96.09350586 58.28588867 -96.09350586 58.28588867 -93.81640625 56.890625 C-92.99076172 56.37822266 -92.16511719 55.86582031 -91.31445312 55.33789062 C-90.43982422 54.80486328 -89.56519531 54.27183594 -88.6640625 53.72265625 C-81.68286403 49.4538375 -81.68286403 49.4538375 -74.9375 44.828125 C-72.15194645 42.838928 -69.45158963 41.21809884 -66.4140625 39.66015625 C-62.81967734 37.74153174 -59.46607538 35.7330759 -56.1640625 33.34765625 C-50.01472927 28.91738582 -43.51597412 25.08140641 -37.0390625 21.15625 C-33.76553715 19.1722739 -30.51465226 17.15900971 -27.2890625 15.09765625 C-26.46277344 14.57429687 -25.63648437 14.0509375 -24.78515625 13.51171875 C-22.17438031 11.82455064 -19.59235546 10.10366954 -17.01171875 8.37109375 C-15.29186816 7.23797536 -13.57181459 6.105165 -11.8515625 4.97265625 C-11.02986572 4.41070557 -10.20816895 3.84875488 -9.36157227 3.26977539 C-3.44891451 -0.58799545 -3.44891451 -0.58799545 0 0 Z " fill="#BC2D2A" transform="translate(108.7265625,113.46484375)"/>
<path d="M0 0 C0.44148866 12.69931948 0.77842457 25.39679776 0.98443127 38.10224533 C1.08334704 44.00338638 1.21729163 49.89925697 1.43334961 55.79736328 C1.64082374 61.4972459 1.75358534 67.19208619 1.80266762 72.89545441 C1.837605 75.06339217 1.90585169 77.23107248 2.00887108 79.39684296 C2.76238808 95.90453664 2.76238808 95.90453664 -1.85082626 101.07398987 C-6.4022547 104.80411014 -11.40191626 107.45842716 -16.72440147 109.9201889 C-19.81864166 111.38845971 -22.61888096 113.15116385 -25.5 115 C-26.52480469 115.62777344 -27.54960938 116.25554687 -28.60546875 116.90234375 C-33.49985039 119.92683505 -38.35767163 123.00830672 -43.21875 126.0859375 C-50.80880993 130.88781215 -58.42450057 135.64815012 -66.04663086 140.39892578 C-70.93880633 143.45075845 -75.82114611 146.51594068 -80.6796875 149.62109375 C-81.55882812 150.18183594 -82.43796875 150.74257812 -83.34375 151.3203125 C-84.99465347 152.37505638 -86.64321236 153.43348177 -88.2890625 154.49609375 C-89.01609375 154.96015625 -89.743125 155.42421875 -90.4921875 155.90234375 C-91.12495605 156.30960693 -91.75772461 156.71687012 -92.40966797 157.13647461 C-94 158 -94 158 -96 158 C-95.68424571 151.62849698 -94.50018456 147.05780268 -91.1875 141.625 C-90.59461182 140.61252197 -90.59461182 140.61252197 -89.98974609 139.57958984 C-85.83773832 132.5603767 -81.44289932 125.68548542 -77.0546875 118.8125 C-74.06247031 114.11778161 -71.14482811 109.38024709 -68.25 104.625 C-67.79471924 103.87726318 -67.33943848 103.12952637 -66.87036133 102.35913086 C-65.99000776 100.91257279 -65.10987293 99.46588157 -64.22998047 98.01904297 C-61.17286448 93.00071243 -58.0825526 88.00272599 -55 83 C-54.401875 82.02675781 -53.80375 81.05351563 -53.1875 80.05078125 C-49.59114072 74.199205 -45.98237429 68.35556887 -42.36401367 62.51757812 C-37.72044955 55.02512284 -33.0892489 47.52586203 -28.5 40 C-27.15367069 37.79558432 -25.80678212 35.59151207 -24.45947266 33.38769531 C-23.42465087 31.69472825 -22.39054347 30.00132443 -21.35693359 28.30761719 C-19.63793657 25.49418068 -17.91326312 22.6842902 -16.1875 19.875 C-15.66027344 19.01003906 -15.13304688 18.14507813 -14.58984375 17.25390625 C-3.96379884 0 -3.96379884 0 0 0 Z " fill="#BB2D2A" transform="translate(101,5)"/>
<path d="M0 0 C9.34850332 3.73940133 13.58911668 13.3079009 18.4375 21.75 C19.57202902 23.6984338 20.70744223 25.64635302 21.84375 27.59375 C22.38515625 28.52445313 22.9265625 29.45515625 23.484375 30.4140625 C25.42340688 33.72241072 27.41907949 36.98947456 29.4375 40.25 C30.0459375 41.23355469 30.654375 42.21710937 31.28125 43.23046875 C32.44687736 45.1087183 33.61357908 46.98630146 34.78125 48.86328125 C35.3278125 49.75402344 35.874375 50.64476562 36.4375 51.5625 C36.91058594 52.32691406 37.38367188 53.09132812 37.87109375 53.87890625 C38.96390143 55.93217466 39.55161578 57.72715585 40 60 C40.66 60 41.32 60 42 60 C42.4846875 60.85980469 42.969375 61.71960938 43.46875 62.60546875 C49.02134914 72.41496718 54.83781881 82.03757714 60.890625 91.546875 C66.08496507 99.71305612 71.13549357 107.88823435 75.8671875 116.33203125 C78.46562115 120.87992515 81.30758693 125.27335207 84.125 129.6875 C90.8877917 140.33415665 90.8877917 140.33415665 93.75 145.3125 C94.42289063 146.48232422 94.42289063 146.48232422 95.109375 147.67578125 C96.21136699 150.55159368 96.15859614 152.9470243 96 156 C87.78882308 151.6558102 79.87710878 146.91795301 72 142 C68.58521836 139.87195794 65.16842022 137.74719223 61.75 135.625 C60.85055664 135.06659424 59.95111328 134.50818848 59.02441406 133.93286133 C52.65344854 129.99075492 46.2241849 126.16214963 39.75317383 122.38720703 C35.06270641 119.64449989 30.45392112 116.80002035 25.88671875 113.85546875 C22.19152034 111.48034122 18.47278002 109.14408433 14.75 106.8125 C13.75697876 106.18794922 13.75697876 106.18794922 12.74389648 105.55078125 C12.10137939 105.14859375 11.4588623 104.74640625 10.796875 104.33203125 C10.23323242 103.97858643 9.66958984 103.6251416 9.08886719 103.26098633 C6.09202207 101.45188102 3.03933998 99.73676571 0 98 C0 65.66 0 33.32 0 0 Z " fill="#BB2E2B" transform="translate(113,6)"/>
<path d="M0 0 C4.62 2.64 9.24 5.28 14 8 C13 11 13 11 10.90217304 12.17246819 C7.41205705 13.16764731 4.16087998 13.27105279 0.56523132 13.24050903 C-0.543736 13.24307231 -0.543736 13.24307231 -1.6751067 13.24568737 C-4.14719188 13.2489761 -6.61900437 13.23798882 -9.09106445 13.22705078 C-10.86517836 13.22648653 -12.63929274 13.22680349 -14.41340637 13.22793579 C-19.22704728 13.22850978 -24.04058857 13.21674801 -28.85420632 13.20278788 C-33.8857245 13.19028819 -38.91724494 13.18911062 -43.94877625 13.18673706 C-53.47552697 13.18052006 -63.0022318 13.16410624 -72.52896231 13.14403808 C-83.37529836 13.12168596 -94.2216366 13.11068737 -105.06798995 13.10064721 C-127.3786854 13.07974022 -149.68934013 13.04455993 -172 13 C-172 12.67 -172 12.34 -172 12 C-171.08540103 11.99668985 -170.17080206 11.99337971 -169.22848797 11.98996925 C-146.99576449 11.90882291 -124.76310974 11.8167581 -102.53048229 11.71247292 C-91.77904375 11.66230637 -81.02761299 11.61586397 -70.27612305 11.578125 C-60.90741738 11.54523039 -51.53877138 11.50541328 -42.1701315 11.45720994 C-37.207445 11.43191973 -32.24479821 11.41014594 -27.28206444 11.39665604 C-22.6142327 11.38385852 -17.94653698 11.36182924 -13.27877998 11.33261681 C-11.5626815 11.32352291 -9.8465611 11.31784659 -8.13043976 11.31578636 C-5.79291467 11.31247656 -3.45577826 11.29703441 -1.11833191 11.2784729 C0.19153592 11.27294214 1.50140375 11.26741138 2.85096455 11.26171303 C6.16066239 11.24236145 6.16066239 11.24236145 9 9 C6.85769441 6.69900511 4.97051851 4.98257912 2.25 3.375 C1.5075 2.92125 0.765 2.4675 0 2 C0 1.34 0 0.68 0 0 Z " fill="#982724" transform="translate(190,164)"/>
<path d="M0 0 C0 0.99 0 1.98 0 3 C-0.639375 3.2475 -1.27875 3.495 -1.9375 3.75 C-4.49019039 4.96621634 -4.49019039 4.96621634 -5 9 C53.74 9 112.48 9 173 9 C173 9.33 173 9.66 173 10 C149.74773077 10.17725451 126.49540478 10.34292686 103.24295521 10.49477577 C92.44667232 10.56555098 81.65044061 10.64012946 70.85424805 10.72363281 C61.4453214 10.79639671 52.03637674 10.86205384 42.62734145 10.91914403 C37.64441131 10.9496275 32.66156321 10.98369189 27.67872047 11.02626419 C22.98963842 11.06621445 18.30059098 11.09666883 13.61139679 11.11981392 C11.88964848 11.12999097 10.16791672 11.14364922 8.44622612 11.16103554 C6.09636346 11.18424619 3.74676233 11.19495507 1.39680481 11.20254517 C0.08140622 11.2117631 -1.23399237 11.22098103 -2.58925152 11.23047829 C-5.85636764 11.00970583 -8.07447809 10.41752365 -11 9 C-11 8.34 -11 7.68 -11 7 C-9.21601386 5.71993203 -7.37146094 4.52339649 -5.5 3.375 C-3.96859375 2.42753906 -3.96859375 2.42753906 -2.40625 1.4609375 C-1.6121875 0.97882813 -0.818125 0.49671875 0 0 Z " fill="#B5302D" transform="translate(22,166)"/>
<path d="M0 0 C0.99 0.33 1.98 0.66 3 1 C2.34 1 1.68 1 1 1 C1 33.34 1 65.68 1 99 C2.65 99.66 4.3 100.32 6 101 C5.505 101.99 5.505 101.99 5 103 C4.01 102.67 3.02 102.34 2 102 C2 101.34 2 100.68 2 100 C1.01 99.67 0.02 99.34 -1 99 C-1.02312121 86.2396613 -1.04091395 73.47932755 -1.05181217 60.71897221 C-1.05704149 54.79449285 -1.06414001 48.87002778 -1.07543945 42.94555664 C-1.08626661 37.23327429 -1.09227647 31.52100572 -1.09487724 25.80871391 C-1.0967318 23.62411723 -1.100353 21.43952135 -1.10573006 19.2549305 C-1.11293821 16.20647651 -1.11399104 13.15808021 -1.11352539 10.10961914 C-1.11712067 9.19684204 -1.12071594 8.28406494 -1.12442017 7.34362793 C-1.11405216 1.11405216 -1.11405216 1.11405216 0 0 Z " fill="#F2C9C8" transform="translate(112,5)"/>
<path d="M0 0 C0.33 0.66 0.66 1.32 1 2 C0.319375 2.9075 -0.36125 3.815 -1.0625 4.75 C-3.31232571 7.69292846 -3.31232571 7.69292846 -2.5625 10.125 C-2.376875 10.74375 -2.19125 11.3625 -2 12 C-3.4375 14.25 -3.4375 14.25 -5 16 C-5.66 15.67 -6.32 15.34 -7 15 C-7.66 16.32 -8.32 17.64 -9 19 C-9.66 19 -10.32 19 -11 19 C-11.33 20.32 -11.66 21.64 -12 23 C-12.66 23 -13.32 23 -14 23 C-13.67 24.32 -13.34 25.64 -13 27 C-14.65 28.32 -16.3 29.64 -18 31 C-18.33 30.34 -18.66 29.68 -19 29 C-18.01538086 26.97216797 -18.01538086 26.97216797 -16.46484375 24.4921875 C-15.90216797 23.58726563 -15.33949219 22.68234375 -14.75976562 21.75 C-14.15841797 20.80125 -13.55707031 19.8525 -12.9375 18.875 C-12.36322266 17.94945313 -11.78894531 17.02390625 -11.19726562 16.0703125 C-7.71280272 10.50774264 -4.04138486 5.17245556 0 0 Z " fill="#A9403D" transform="translate(97,7)"/>
<path d="M0 0 C0.66 0.33 1.32 0.66 2 1 C0.875 3.4375 0.875 3.4375 -1 6 C-4 6.625 -4 6.625 -7 7 C-8.54166642 8.37485532 -8.54166642 8.37485532 -10 10 C-10.94875 10.433125 -11.8975 10.86625 -12.875 11.3125 C-16.70876189 13.38273142 -18.3932185 15.54984801 -21 19 C-22.32 18.34 -23.64 17.68 -25 17 C-22.29768258 14.12426356 -19.66960637 12.01375084 -16.26953125 10.01953125 C-15.38458984 9.49552734 -14.49964844 8.97152344 -13.58789062 8.43164062 C-12.67201172 7.89732422 -11.75613281 7.36300781 -10.8125 6.8125 C-8.98499953 5.73682738 -7.15814069 4.66006367 -5.33203125 3.58203125 C-4.52483643 3.10999268 -3.7176416 2.6379541 -2.88598633 2.15161133 C-1.05926089 1.13759149 -1.05926089 1.13759149 0 0 Z " fill="#F9E0DF" transform="translate(53,133)"/>
<path d="M0 0 C4.32457206 5.35423207 6 8.98201993 6 16 C2.37 14.02 -1.26 12.04 -5 10 C-3.68 9.67 -2.36 9.34 -1 9 C0.0730756 5.7807732 -0.20053275 5.09793558 -1 2 C-0.67 1.34 -0.34 0.68 0 0 Z " fill="#A1403F" transform="translate(203,146)"/>
<path d="M0 0 C0.99 0 1.98 0 3 0 C2.1875 2.4375 2.1875 2.4375 1 5 C0.01 5.33 -0.98 5.66 -2 6 C-2.80563638 8.10584438 -2.80563638 8.10584438 -3.1875 10.5625 C-3.34605469 11.38878906 -3.50460938 12.21507812 -3.66796875 13.06640625 C-3.77753906 13.70449219 -3.88710937 14.34257812 -4 15 C-3.40251953 14.30970703 -3.40251953 14.30970703 -2.79296875 13.60546875 C-0.70133484 11.7325678 1.01421992 11.12610698 3.6875 10.3125 C4.49574219 10.06113281 5.30398437 9.80976563 6.13671875 9.55078125 C6.75160156 9.36902344 7.36648437 9.18726563 8 9 C4.5798883 12.84762566 0.53225744 15.60634022 -4 18 C-4.66 18 -5.32 18 -6 18 C-5.65532373 10.76179827 -3.89785009 6.08409811 0 0 Z " fill="#9F3433" transform="translate(11,145)"/>
<path d="M0 0 C5.14860706 1.28715177 5.86461447 2.90658001 9 7 C8.34 7.66 7.68 8.32 7 9 C7 8.34 7 7.68 7 7 C6.0409375 6.5359375 6.0409375 6.5359375 5.0625 6.0625 C3 5 3 5 2 4 C1.67 11.26 1.34 18.52 1 26 C0.67 26 0.34 26 0 26 C0 17.42 0 8.84 0 0 Z " fill="#B13432" transform="translate(114,7)"/>
<path d="M0 0 C2.25887245 1.28143872 4.28049845 2.66099064 6.29296875 4.30078125 C5.6896875 4.22859375 5.08640625 4.15640625 4.46484375 4.08203125 C3.665625 3.98921875 2.86640625 3.89640625 2.04296875 3.80078125 C1.2540625 3.70796875 0.46515625 3.61515625 -0.34765625 3.51953125 C-2.97593522 3.23923506 -2.97593522 3.23923506 -6.70703125 3.30078125 C-6.70703125 3.96078125 -6.70703125 4.62078125 -6.70703125 5.30078125 C-7.36703125 5.30078125 -8.02703125 5.30078125 -8.70703125 5.30078125 C-8.70703125 5.96078125 -8.70703125 6.62078125 -8.70703125 7.30078125 C-11.34703125 7.96078125 -13.98703125 8.62078125 -16.70703125 9.30078125 C-14.19452126 6.57749022 -11.40210781 4.55322315 -8.33203125 2.48828125 C-7.39617187 1.84246094 -6.4603125 1.19664063 -5.49609375 0.53125 C-2.70703125 -0.69921875 -2.70703125 -0.69921875 0 0 Z " fill="#AA4747" transform="translate(108.70703125,113.69921875)"/>
<path d="M0 0 C1.11446301 3.80039903 0.79584021 5.40831958 -1 9 C-2.9375 12.3125 -2.9375 12.3125 -5 15 C-5.99 15 -6.98 15 -8 15 C-6.62712658 11.30123909 -4.93644547 8.0485524 -2.875 4.6875 C-2.33617187 3.80449219 -1.79734375 2.92148438 -1.2421875 2.01171875 C-0.83226562 1.34785156 -0.42234375 0.68398437 0 0 Z " fill="#AC3736" transform="translate(38,101)"/>
<path d="M0 0 C0.33 0.66 0.66 1.32 1 2 C0.319375 2.9075 -0.36125 3.815 -1.0625 4.75 C-3.31232571 7.69292846 -3.31232571 7.69292846 -2.5625 10.125 C-2.2840625 11.053125 -2.2840625 11.053125 -2 12 C-3.4375 14.25 -3.4375 14.25 -5 16 C-5.66 15.67 -6.32 15.34 -7 15 C-6.72694671 8.44672101 -4.18788859 4.93069452 0 0 Z " fill="#B62D2B" transform="translate(97,7)"/>
<path d="M0 0 C0.66 1.32 1.32 2.64 2 4 C1.01 4.33 0.02 4.66 -1 5 C-1.1546875 6.1446875 -1.1546875 6.1446875 -1.3125 7.3125 C-2.0690983 10.27011154 -2.81772825 10.99230999 -5 13 C-6.17574711 15.09989652 -6.17574711 15.09989652 -7 17 C-7.66 17 -8.32 17 -9 17 C-9 17.66 -9 18.32 -9 19 C-9.66 18.67 -10.32 18.34 -11 18 C-7.37 12.06 -3.74 6.12 0 0 Z " fill="#A94140" transform="translate(28,117)"/>
<path d="M0 0 C6.93 3.96 6.93 3.96 14 8 C13.67 8.99 13.34 9.98 13 11 C9.4375 12.1875 9.4375 12.1875 6 13 C6 12.34 6 11.68 6 11 C6.99 10.34 7.98 9.68 9 9 C6.85769441 6.69900511 4.97051851 4.98257912 2.25 3.375 C1.5075 2.92125 0.765 2.4675 0 2 C0 1.34 0 0.68 0 0 Z " fill="#A13936" transform="translate(190,164)"/>
<path d="M0 0 C0 0.99 0 1.98 0 3 C-0.639375 3.2475 -1.27875 3.495 -1.9375 3.75 C-4.18741541 4.81562433 -4.18741541 4.81562433 -4.75 7.125 C-4.8325 7.74375 -4.915 8.3625 -5 9 C-3.68 9.33 -2.36 9.66 -1 10 C-5.05431692 11.15837626 -7.21812119 10.83691257 -11 9 C-11 8.34 -11 7.68 -11 7 C-9.21601386 5.71993203 -7.37146094 4.52339649 -5.5 3.375 C-3.96859375 2.42753906 -3.96859375 2.42753906 -2.40625 1.4609375 C-1.6121875 0.97882813 -0.818125 0.49671875 0 0 Z " fill="#A23533" transform="translate(22,166)"/>
<path d="M0 0 C4.53100606 5.22808391 8.80143876 11.40431627 11 18 C10.34 18 9.68 18 9 18 C8.34 16.35 7.68 14.7 7 13 C6.34 13 5.68 13 5 13 C1 6.25 1 6.25 1 4 C0.01 4.33 -0.98 4.66 -2 5 C-1.34 3.35 -0.68 1.7 0 0 Z " fill="#A93F3D" transform="translate(138,40)"/>
<path d="M0 0 C0.66 0.33 1.32 0.66 2 1 C-0.625 4.875 -0.625 4.875 -4 6 C-4.33 6.66 -4.66 7.32 -5 8 C-8.49360475 9.79401325 -10.28574649 10.11665191 -14 9 C-11.71439353 7.4693001 -9.42237333 5.95034956 -7.125 4.4375 C-6.14853516 3.78104492 -6.14853516 3.78104492 -5.15234375 3.11132812 C-3.47374503 2.01245164 -1.73976613 0.9992182 0 0 Z " fill="#F8DCDB" transform="translate(24,151)"/>
<path d="M0 0 C0.99 0.33 1.98 0.66 3 1 C2.72285156 1.58007812 2.44570312 2.16015625 2.16015625 2.7578125 C0.11033734 7.17841841 -1.4969378 11.09514353 -2 16 C-2.33 16 -2.66 16 -3 16 C-3.144375 15.21625 -3.28875 14.4325 -3.4375 13.625 C-3.87798925 11.03578982 -3.87798925 11.03578982 -5 9 C-3.52830189 5.26415094 -3.52830189 5.26415094 -1 4 C-0.34786708 1.97536745 -0.34786708 1.97536745 0 0 Z " fill="#F8DCD9" transform="translate(7,147)"/>
<path d="M0 0 C0.66 0 1.32 0 2 0 C0.56032356 5.23518706 -1.81696611 9.63026009 -5 14 C-5.33 14 -5.66 14 -6 14 C-6.34890567 9.81313194 -5.67867453 8.17472537 -3 5 C-2.484375 4.0925 -1.96875 3.185 -1.4375 2.25 C-0.963125 1.5075 -0.48875 0.765 0 0 Z " fill="#FAE3DF" transform="translate(77,34)"/>
<path d="M0 0 C2.31777287 2.84453943 3.89118681 5.48875822 5 9 C4.67 9.66 4.34 10.32 4 11 C2.68 11 1.36 11 0 11 C-0.19491452 9.54263913 -0.38069358 8.08405407 -0.5625 6.625 C-0.66691406 5.81289062 -0.77132812 5.00078125 -0.87890625 4.1640625 C-1 2 -1 2 0 0 Z " fill="#B23C39" transform="translate(203,146)"/>
<path d="M0 0 C5.57264628 2.6868116 10.81117468 5.63278357 16 9 C13 10 13 10 11.17578125 9.22265625 C9.45052083 8.1484375 7.72526042 7.07421875 6 6 C6 5.34 6 4.68 6 4 C5.071875 3.7834375 5.071875 3.7834375 4.125 3.5625 C2 3 2 3 0 2 C0 1.34 0 0.68 0 0 Z " fill="#A53F3D" transform="translate(115,118)"/>
<path d="M0 0 C0.66 0.33 1.32 0.66 2 1 C-0.31 4.63 -2.62 8.26 -5 12 C-5.66 11.67 -6.32 11.34 -7 11 C-5.79618552 8.50638429 -4.54571278 6.31856917 -3 4 C-2.34 4 -1.68 4 -1 4 C-0.67 2.68 -0.34 1.36 0 0 Z " fill="#FAE5E2" transform="translate(64,56)"/>
<path d="M0 0 C-3.63 2.31 -7.26 4.62 -11 7 C-11.33 6.34 -11.66 5.68 -12 5 C-11.34 4.34 -10.68 3.68 -10 3 C-9.67 2.34 -9.34 1.68 -9 1 C-3.6407767 -1.21359223 -3.6407767 -1.21359223 0 0 Z " fill="#A63733" transform="translate(32,147)"/>
<path d="M0 0 C0.33 0 0.66 0 1 0 C1 1.98 1 3.96 1 6 C0.01 6.33 -0.98 6.66 -2 7 C-2.73323796 9.01508358 -2.73323796 9.01508358 -3 11 C-3.66 10.01 -4.32 9.02 -5 8 C-4.19185349 6.66402348 -3.37836819 5.331275 -2.5625 4 C-2.11003906 3.2575 -1.65757813 2.515 -1.19140625 1.75 C-0.79824219 1.1725 -0.40507813 0.595 0 0 Z " fill="#AD3F3B" transform="translate(59,67)"/>
<path d="M0 0 C2 2.66666667 4 5.33333333 6 8 C5.34 9.32 4.68 10.64 4 12 C3.54625 10.865625 3.0925 9.73125 2.625 8.5625 C1.42904194 4.95278308 1.42904194 4.95278308 -1 4 C-0.67 2.68 -0.34 1.36 0 0 Z " fill="#AB3D3B" transform="translate(182,112)"/>
<path d="M0 0 C-4.455 2.97 -4.455 2.97 -9 6 C-9.33 5.01 -9.66 4.02 -10 3 C-9.01 2.67 -8.02 2.34 -7 2 C-6.67 1.34 -6.34 0.68 -6 0 C-2.49056604 -1.24528302 -2.49056604 -1.24528302 0 0 Z " fill="#A63731" transform="translate(70,123)"/>
<path d="M0 0 C3.63 1.98 7.26 3.96 11 6 C10.67 6.66 10.34 7.32 10 8 C7 8 7 8 4.4375 5.5625 C3.633125 4.716875 2.82875 3.87125 2 3 C1.34 2.67 0.68 2.34 0 2 C0 1.34 0 0.68 0 0 Z " fill="#A23A37" transform="translate(151,140)"/>
<path d="M0 0 C3.64991166 1.31802365 5.7895201 2.59214008 9 5 C5.37 4.67 1.74 4.34 -2 4 C-1.34 2.68 -0.68 1.36 0 0 Z " fill="#A13A39" transform="translate(106,113)"/>
<path d="M0 0 C3.28220895 1.64110448 3.74570789 4.69322988 5 8 C5 8.99 5 9.98 5 11 C1.63408573 8.27521226 0.55773724 4.93143208 -1 1 C-0.67 0.67 -0.34 0.34 0 0 Z " fill="#FAE5E2" transform="translate(182,108)"/>
<path d="M0 0 C2.95749791 3.46741134 5.07848152 6.86873527 7 11 C6.01 11.495 6.01 11.495 5 12 C2 7.25 2 7.25 2 5 C1.34 5 0.68 5 0 5 C0 3.35 0 1.7 0 0 Z " fill="#A53E3C" transform="translate(172,96)"/>
<path d="M0 0 C0.99 0.33 1.98 0.66 3 1 C0.525 5.455 0.525 5.455 -2 10 C-3.19156292 5.23374833 -2.3415946 4.12120649 0 0 Z " fill="#FBE7E4" transform="translate(42,90)"/>
<path d="M0 0 C0.99 0.66 1.98 1.32 3 2 C1.02 3.32 -0.96 4.64 -3 6 C-4.32 5.34 -5.64 4.68 -7 4 C-4.69 2.68 -2.38 1.36 0 0 Z " fill="#AF3B3B" transform="translate(49,149)"/>
<path d="M0 0 C0.33 0.99 0.66 1.98 1 3 C-4.75 7 -4.75 7 -7 7 C-6.34 5.68 -5.68 4.36 -5 3 C-4.34 3.33 -3.68 3.66 -3 4 C-2.67 3.01 -2.34 2.02 -2 1 C-1.34 0.67 -0.68 0.34 0 0 Z " fill="#F9E5E1" transform="translate(75,130)"/>
<path d="M0 0 C2.95749791 3.46741134 5.07848152 6.86873527 7 11 C5 11 5 11 2.9375 9.4375 C0.47130385 6.33486614 0.29957983 3.89453784 0 0 Z " fill="#A4403C" transform="translate(155,68)"/>
<path d="M0 0 C1.0326802 2.78823655 1.04509293 3.8677274 0.0625 6.75 C-0.288125 7.4925 -0.63875 8.235 -1 9 C-1.99 8.67 -2.98 8.34 -4 8 C-2.87548273 5.0280615 -1.77706209 2.66559313 0 0 Z " fill="#B24846" transform="translate(38,101)"/>
<path d="M0 0 C2.97 1.65 5.94 3.3 9 5 C8.01 5.66 7.02 6.32 6 7 C4 5.625 4 5.625 2 4 C2 3.34 2 2.68 2 2 C1.34 2 0.68 2 0 2 C0 1.34 0 0.68 0 0 Z " fill="#F6DBD7" transform="translate(181,145)"/>
<path d="M0 0 C-2.68841859 2.25245881 -4.64641875 3.88213958 -8 5 C-7.625 3.0625 -7.625 3.0625 -7 1 C-4.53721199 -0.231394 -2.7204945 -0.07159196 0 0 Z " fill="#F8DCDB" transform="translate(32,160)"/>
<path d="M0 0 C2.875 0.25 2.875 0.25 6 1 C7.375 3.0625 7.375 3.0625 8 5 C4.62496331 3.8141763 2.35277269 2.72426311 0 0 Z " fill="#F7D7D3" transform="translate(162,146)"/>
<path d="M0 0 C0 3 0 3 -1.3125 4.6875 C-3 6 -3 6 -6 6 C-6 5.34 -6 4.68 -6 4 C-4.03852126 2.61061923 -2.03833424 1.2739589 0 0 Z " fill="#AE4241" transform="translate(79,130)"/>
<path d="M0 0 C1.98 0.99 1.98 0.99 4 2 C4.625 4.5625 4.625 4.5625 5 7 C5.66 7.33 6.32 7.66 7 8 C6.01 8 5.02 8 4 8 C2.68 5.36 1.36 2.72 0 0 Z " fill="#FBE2E0" transform="translate(167,87)"/>
<path d="M0 0 C0.33 0.66 0.66 1.32 1 2 C-0.65 4.31 -2.3 6.62 -4 9 C-4.66 8.67 -5.32 8.34 -6 8 C-4.02 5.36 -2.04 2.72 0 0 Z " fill="#A94746" transform="translate(97,7)"/>
<path d="M0 0 C0.99 0 1.98 0 3 0 C1.62845496 2.95409701 0.01136276 5.44008376 -2 8 C-2.20086443 4.28400809 -2.1519437 3.22791555 0 0 Z " fill="#F9E5E0" transform="translate(92,9)"/>
</svg>
